<svg xmlns="http://www.w3.org/2000/svg" xmlns:xlink="http://www.w3.org/1999/xlink" width="100" height="100"><defs><pattern xlink:href="#a" id="d" patternTransform="matrix(2.39738 0 0 2.39738 22.799 12.143)"/><pattern xlink:href="#b" id="c" patternTransform="matrix(2.23691 -.87244 .9132 2.34141 -31.106 -3.761)"/><pattern id="b" width="2" height="2" patternTransform="scale(10)" patternUnits="userSpaceOnUse"><path d="M0 0h1v1H0zM1 1h1v1H1z" style="fill:#fff;stroke:none"/></pattern><pattern id="a" width="21.365" height="18.281" patternTransform="translate(19.946 13.26)" patternUnits="userSpaceOnUse"><path d="M.543 7.004C6.317 1.722 11.525.579 17.107.544l3.715 9.988C15.057 11.721 7.119 15.19 4.97 17.738L.752 6.922Z" style="fill:url(#c);fill-opacity:1;fill-rule:evenodd;stroke:#000;stroke-width:1.08696854px;stroke-linecap:butt;stroke-linejoin:round;stroke-opacity:1"/></pattern></defs><ellipse cx="50.094" cy="51.491" rx="47.086" ry="45.31" style="fill:#5f9;fill-opacity:1;stroke:#5f9;stroke-width:1.68020976;stroke-linecap:round;stroke-linejoin:round;stroke-miterlimit:4;stroke-dasharray:none;stroke-opacity:1"/><path d="M23.82 28.908s11.896-10.003 19.05-12.617c6.706-2.45 21.275-2.474 21.275-2.474L73.3 37.814s-14.516 2.827-21.276 5.69c-6.175 2.616-17.257 10.343-17.257 10.343Z" style="fill:#000;fill-opacity:1;fill-rule:evenodd;stroke:none;stroke-width:1px;stroke-linecap:butt;stroke-linejoin:miter;stroke-opacity:1"/><path d="M22.8 12.141V55.97h16.403l6.453-4.514 8.222-4.898 12.418-4.373 7.726-1.302v-28.74H22.8zm51.222 40.091-5.858 2.678a5.69 3.092 0 0 1 .955 1.059h4.903v-3.737z" style="fill:url(#d);stroke:none"/><path d="M24.855 29.23 49.61 93.119" style="fill:none;fill-rule:evenodd;stroke:#000;stroke-width:3.54037762;stroke-linecap:butt;stroke-linejoin:miter;stroke-miterlimit:4;stroke-dasharray:none;stroke-opacity:1"/></svg>