<svg xmlns="http://www.w3.org/2000/svg" width="100" height="40"><path d="M98.119 20.78c1.372-4.913-37.91-11.661-71.044-1.448v1.084c4.47 6.032 59.961 8.208 71.044.364z" style="fill:#ff0;fill-rule:evenodd;stroke:#000;stroke-width:.2474187;stroke-linecap:round;stroke-linejoin:round;stroke-miterlimit:4;stroke-dasharray:none;stroke-opacity:1"/><path d="M27.075 19.332H1.23s-.24.243-.25.428c-.013.206.214.537.214.537l25.882.119Z" style="fill:#000;fill-rule:evenodd;stroke:#000;stroke-width:.2474187;stroke-linecap:butt;stroke-linejoin:miter;stroke-miterlimit:4;stroke-dasharray:none;stroke-opacity:1"/><ellipse cx="77.559" cy="19.681" rx="2.006" ry="1.893" style="opacity:1;fill:#000;fill-opacity:1;stroke:none;stroke-width:.2;stroke-linecap:round;stroke-linejoin:round;stroke-miterlimit:4;stroke-dasharray:none;stroke-opacity:1"/><path d="m38.288 16.693-3.67-6.397-2.784.109.835 7.662zM37.9 23.642l-3.671 6.397-2.784-.108.835-7.662zM86.626 24.17c.497-2.644.324-5.526.063-8.17 0 0 11.517 1.198 11.854 4.226.596 1.817-8.922 3.614-11.917 3.945z" style="fill:#000;fill-rule:evenodd;stroke:#000;stroke-width:.2474187;stroke-linecap:butt;stroke-linejoin:miter;stroke-miterlimit:4;stroke-dasharray:none;stroke-opacity:1"/><path d="M27.075 19.332v1.084s2.313 2.452 14.05 3.978c-1.322-2.988-.329-5.71.196-8.39-4.79.973-9.645 1.724-14.246 3.328z" style="fill:#000;fill-rule:evenodd;stroke:#000;stroke-width:.2474187;stroke-linecap:butt;stroke-linejoin:miter;stroke-miterlimit:4;stroke-dasharray:none;stroke-opacity:1"/></svg>