<svg xmlns="http://www.w3.org/2000/svg" width="100" height="50"><path d="M52.824 27.398 36.078 45.432l5.319.124 18.698-18.075zM51.577 18.189 38.737 6.762l4.405-.083L58.35 18.23Z" style="opacity:1;fill:#ff0;fill-opacity:1;stroke:#000;stroke-width:.1;stroke-linecap:butt;stroke-linejoin:miter;stroke-miterlimit:4;stroke-dasharray:none;stroke-opacity:1"/><path d="M26.001 17.985h64.642c2.267 2.779 1.916 8.39 0 9.637l-64.583.206c-1.768-3.105-1.346-6.885-.059-9.843z" style="opacity:1;fill:#ff0;fill-opacity:1;stroke:#000;stroke-width:.1;stroke-linecap:butt;stroke-linejoin:miter;stroke-miterlimit:4;stroke-dasharray:none;stroke-opacity:1"/><path d="M48.893 18.074v9.685h1.45v-9.767h-1.45zM61.646 18.056v9.689h1.579v-9.772h-1.58z" style="opacity:1;fill:#000;fill-opacity:1;stroke:#000;stroke-width:.1;stroke-linecap:butt;stroke-linejoin:miter;stroke-miterlimit:4;stroke-dasharray:none;stroke-opacity:1"/><path d="M24.736 18.128c-1.512.141-11.842.569-15.806 4.918 3.19 5.112 13.936 4.642 15.548 4.73-1.2-3.115-1.26-6.435.258-9.648z" style="opacity:1;fill:#ff0;fill-opacity:1;stroke:#000;stroke-width:.1;stroke-linecap:butt;stroke-linejoin:miter;stroke-miterlimit:4;stroke-dasharray:none;stroke-opacity:1"/><path d="m10.546 21.952 8.022-.853s-3.1-5.088-5.671-6.2c-1.88-.811-4.187-.3-6.141.089-.293.058-1.352.437-1.234.764.135.374.8.333 1.116.617 1.69 1.519 3.908 5.583 3.908 5.583z" style="opacity:1;fill:#ff0;fill-opacity:1;stroke:#000;stroke-width:.1;stroke-linecap:butt;stroke-linejoin:miter;stroke-miterlimit:4;stroke-dasharray:none;stroke-opacity:1"/><path d="M9.87 23.832s.83-.284.794-.617c-.043-.388-1.058-.5-1.058-.5H7.167s-.706.181-.734.47c-.027.283.617.588.617.588z" style="opacity:1;fill:#1a1a1a;stroke:#000;stroke-width:.1;stroke-linecap:butt;stroke-linejoin:miter;stroke-miterlimit:4;stroke-dasharray:none;stroke-opacity:1"/><path d="M6.521 22.422s.614-.979.617-1.528c.004-.673-.735-1.88-.735-1.88s-.792 1.463-.675 2.232c.07.468.793 1.176.793 1.176zM6.45 27.56s.613-.978.616-1.527c.004-.673-.734-1.88-.734-1.88s-.792 1.464-.676 2.232c.07.468.793 1.176.793 1.176z" style="opacity:1;fill:#000;stroke:#000;stroke-width:.1;stroke-linecap:butt;stroke-linejoin:miter;stroke-miterlimit:4;stroke-dasharray:none;stroke-opacity:1"/><path d="M90.361 17.967c1.58 2.113 1.544 7.564.016 9.615-.242.106 5.466.086 5.343-5.024-.084-3.463-2.256-4.62-5.359-4.591z" style="opacity:1;fill:#000;fill-opacity:1;stroke:#000;stroke-width:.1;stroke-linecap:butt;stroke-linejoin:miter;stroke-miterlimit:4;stroke-dasharray:none;stroke-opacity:1"/><path d="m24.74 18.126 1.252-.142c-1.114 3.085-1.679 6.263.051 9.83l-1.6-.065c-1.543-3.947-1.067-6.985.298-9.623z" style="fill:#000;fill-rule:evenodd;stroke:#000;stroke-width:.1;stroke-linecap:butt;stroke-linejoin:miter;stroke-opacity:1;stroke-miterlimit:4;stroke-dasharray:none"/></svg>